<svg id="Layer_1" data-name="Layer 1" xmlns="http://www.w3.org/2000/svg" viewBox="0 0 680.87 101.74"><defs><style>.cls-1{fill:#f2f6f8;}</style></defs><title>Logo</title><path class="cls-1" d="M400.08,32.42V69H388.4V27a6.22,6.22,0,0,1,6.23-6.22H409V32.42Z"/><path class="cls-1" d="M455.71,32.41h-36.6V20.74h42.05A6.22,6.22,0,0,1,467.39,27V41.32H455.71Z"/><path class="cls-1" d="M455.71,88V51.45h11.68v42a6.23,6.23,0,0,1-6.23,6.23H446.8V88Z"/><path class="cls-1" d="M400.08,88.05H435.9V99.72H394.63a6.23,6.23,0,0,1-6.23-6.23V79.13h11.68Z"/><path class="cls-1" d="M551.39,20.66,519.17,99.72h-9.6L477.35,20.66h8.55a3.56,3.56,0,0,1,2.32.72,4.33,4.33,0,0,1,1.32,1.82L511.83,79q.72,1.88,1.41,4.08c.46,1.47.87,3,1.24,4.64.37-1.62.76-3.17,1.16-4.64s.85-2.83,1.33-4.08L539.2,23.2a4,4,0,0,1,1.3-1.74,3.55,3.55,0,0,1,2.34-.8Z"/><path class="cls-1" d="M608.16,91l-.06,8.71H559.39V20.66H608.1v8.72h-38V55.64h30.78V64H570.09V91Z"/><path class="cls-1" d="M679.1,99.72h-9.49a4.67,4.67,0,0,1-4.3-2.26L644.79,69.21a6.17,6.17,0,0,0-2-1.9,7.29,7.29,0,0,0-3.34-.58h-8.11v33H620.67V20.66H643a48.84,48.84,0,0,1,13,1.52,24.79,24.79,0,0,1,9,4.38,17.65,17.65,0,0,1,5.26,6.93A23.13,23.13,0,0,1,672,42.56a22.84,22.84,0,0,1-1.32,7.84,20.67,20.67,0,0,1-3.83,6.54,23,23,0,0,1-6.13,4.93A29.76,29.76,0,0,1,652.51,65,10.65,10.65,0,0,1,656,68.33ZM642.58,59a27.16,27.16,0,0,0,8.19-1.13,16.74,16.74,0,0,0,6-3.2,13.31,13.31,0,0,0,3.61-4.94,16.1,16.1,0,0,0,1.22-6.34q0-7.06-4.64-10.65T643,29.1h-11.7V59Z"/><path class="cls-1" d="M75.44,79.38a2.52,2.52,0,0,1,1.91.88l5.23,5.64A41.72,41.72,0,0,1,68.06,96.72q-8.54,3.87-20.63,3.87a48.3,48.3,0,0,1-19-3.63A41.78,41.78,0,0,1,13.77,86.75,46,46,0,0,1,4.38,71,58.82,58.82,0,0,1,1.05,50.82a56.77,56.77,0,0,1,3.47-20.2,46.14,46.14,0,0,1,9.76-15.78A43.73,43.73,0,0,1,29.34,4.61,50.23,50.23,0,0,1,48.72,1,47.28,47.28,0,0,1,67.08,4.3a46.49,46.49,0,0,1,14,9.05l-4.36,6a3.52,3.52,0,0,1-1,1.12A3,3,0,0,1,74,21a5.42,5.42,0,0,1-3-1.32,45.22,45.22,0,0,0-4.62-3A34.3,34.3,0,0,0,48.65,12.4,35.49,35.49,0,0,0,34.85,15,30.09,30.09,0,0,0,24.07,22.6a34.93,34.93,0,0,0-7,12.1,48.23,48.23,0,0,0-2.52,16.12,47.14,47.14,0,0,0,2.62,16.25,36.07,36.07,0,0,0,7.14,12.07A30.09,30.09,0,0,0,35,86.65a33.83,33.83,0,0,0,13.29,2.59,55,55,0,0,0,7.86-.51,32.65,32.65,0,0,0,6.46-1.6,27.45,27.45,0,0,0,5.5-2.75,40.44,40.44,0,0,0,5.07-4A3.51,3.51,0,0,1,75.44,79.38Z"/><path class="cls-1" d="M125.16,91.23a22.12,22.12,0,0,0,8.77-1.66,18.35,18.35,0,0,0,6.54-4.63,20.24,20.24,0,0,0,4.08-7.12,28.06,28.06,0,0,0,1.41-9.1V20.66h10.65V68.72a36.14,36.14,0,0,1-2.18,12.69,29.54,29.54,0,0,1-6.23,10.12,28.47,28.47,0,0,1-9.91,6.7,36.69,36.69,0,0,1-26.26,0,28.65,28.65,0,0,1-9.93-6.7,29.31,29.31,0,0,1-6.26-10.12,35.91,35.91,0,0,1-2.18-12.69V20.66h10.65v48a28.29,28.29,0,0,0,1.4,9.1,20.17,20.17,0,0,0,4.09,7.12,18.53,18.53,0,0,0,6.56,4.66A21.82,21.82,0,0,0,125.16,91.23Z"/><path class="cls-1" d="M198.59,20.66a48,48,0,0,1,12.55,1.44,24.12,24.12,0,0,1,8.66,4.08,15.83,15.83,0,0,1,5,6.48,22.21,22.21,0,0,1,1.6,8.64,17.21,17.21,0,0,1-.91,5.6,16.6,16.6,0,0,1-2.73,5,19.55,19.55,0,0,1-4.6,4.16,25,25,0,0,1-6.54,3q8.71,1.65,13.1,6.21t4.39,11.94a22.24,22.24,0,0,1-1.85,9.16,19.66,19.66,0,0,1-5.41,7.12,25.41,25.41,0,0,1-8.74,4.61,39.63,39.63,0,0,1-11.81,1.62H173.37V20.66ZM184,29.1v27h14.13a27.83,27.83,0,0,0,7.86-1,15.88,15.88,0,0,0,5.52-2.76,10.79,10.79,0,0,0,3.22-4.28,14.06,14.06,0,0,0,1.05-5.49q0-7-4.19-10.23t-13-3.23Zm17.11,62.13a26.27,26.27,0,0,0,7.89-1,14.71,14.71,0,0,0,5.43-3,11.6,11.6,0,0,0,3.12-4.53,16.16,16.16,0,0,0,1-5.76,11.84,11.84,0,0,0-4.36-9.69q-4.37-3.56-13.07-3.55H184V91.23Z"/><path class="cls-1" d="M291.05,91,291,99.72H242.28V20.66H291v8.72H253V55.64h30.79V64H253V91Z"/><path class="cls-1" d="M378.63,99.5H366.94a5.77,5.77,0,0,1-5.31-2.78L336.34,61.9a7.56,7.56,0,0,0-2.48-2.35,9.17,9.17,0,0,0-4.12-.71h-10V99.5H306.62V2.06h27.54a60,60,0,0,1,16,1.87,30.47,30.47,0,0,1,11.12,5.41,21.69,21.69,0,0,1,6.5,8.53,28.61,28.61,0,0,1,2.1,11.19,28,28,0,0,1-1.63,9.65,25.5,25.5,0,0,1-4.72,8.06A28.62,28.62,0,0,1,356,52.86a38,38,0,0,1-10.1,3.81,13,13,0,0,1,4.35,4.14Zm-45-50.25a33.37,33.37,0,0,0,10.1-1.39,20.85,20.85,0,0,0,7.34-3.94,16.36,16.36,0,0,0,4.45-6.09A19.86,19.86,0,0,0,357,30q0-8.7-5.71-13.13t-17.14-4.42H319.75V49.25Z"/></svg>